HIERARCHY
ROOT Hips
{
	OFFSET 0.000000 0.000000 0.000000 
	CHANNELS 6 Xposition Yposition Zposition Yrotation Zrotation Xrotation 
	JOINT Lumbar
	{
		OFFSET 0.000000 0.000000 0.000000 
		CHANNELS 3 Zrotation Xrotation Yrotation
		JOINT Neck
		{
			OFFSET 0.000000 0.445665 0.000000 
			CHANNELS 3 Zrotation Xrotation Yrotation
			End Site
			{
				OFFSET 0.000000 0.227535 0.000000 
			}
		}
		JOINT RightShoulder
		{
			OFFSET 0.019635 0.377685 0.194865 
			CHANNELS 3 Zrotation Xrotation Yrotation
			JOINT RightElbow
			{
				OFFSET 0.000000 -0.243375 0.000000 
				CHANNELS 2 Zrotation Yrotation
				JOINT RightWrist
				{
					OFFSET 0.000000 -0.264825 0.000000 
					CHANNELS 2 Zrotation Xrotation
					End Site
					{
						OFFSET 0.006600 -0.176220 0.000990 
					}
				}
			}
		}
		JOINT LeftShoulder
		{
			OFFSET 0.019635 0.377685 -0.194865 
			CHANNELS 3 Zrotation Xrotation Yrotation
			JOINT LeftElbow
			{
				OFFSET 0.000000 -0.243375 0.000000 
				CHANNELS 2 Zrotation Yrotation
				JOINT LeftWrist
				{
					OFFSET 0.000000 -0.264825 0.000000 
					CHANNELS 2 Zrotation Xrotation
					End Site
					{
						OFFSET 0.006600 -0.176220 -0.000990 
					}
				}
			}
		}
	}
	JOINT RightHip
	{
		OFFSET 0.052140 -0.069960 0.075570 
		CHANNELS 3 Zrotation Xrotation Yrotation
		JOINT RightKnee
		{
			OFFSET 0.000000 -0.402270 0.000000 
			CHANNELS 1 Zrotation
			JOINT RightAnkle
			{
				OFFSET 0.000000 -0.404085 0.000000 
				CHANNELS 3 Zrotation Xrotation Yrotation
				End Site
				{
					OFFSET 0.204105 -0.089430 0.008415 
				}
			}
		}
	}
	JOINT LeftHip
	{
		OFFSET 0.052140 -0.069960 -0.075570 
		CHANNELS 3 Zrotation Xrotation Yrotation
		JOINT LeftKnee
		{
			OFFSET 0.000000 -0.402270 0.000000 
			CHANNELS 1 Zrotation
			JOINT LeftAnkle
			{
				OFFSET 0.000000 -0.404085 0.000000 
				CHANNELS 3 Zrotation Xrotation Yrotation
				End Site
				{
					OFFSET 0.204105 -0.089430 -0.008415 
				}
			}
		}
	}
}
MOTION
Frames: 22
Frame Time: 0.02
0.00096 -9e-05 -0.0002 32.27287 -17.83831 -4.38069 44.27188 -1.37276 -7.27917 -14.24268 3.40954 -1.16414 -22.37024 -4.56269 -10.77221 26.37492 96.05988 8.59513 1.79697 -22.26579 6.06077 4.99759 30.12905 -105.05695 16.1585 -1.92179 28.60512 -2.87145 -4.15394 -20.27439 -6.81222 -3.78575 -4.07875 33.02858 6.17706 6.39076 -24.34407 -6.61312 2.25727 3.34159
0.00049 -0.00018 0.00024 32.38256 -17.85359 -4.38406 44.24785 -1.34117 -7.30028 -14.20728 3.35891 -1.16527 -22.38765 -4.66 -10.50703 26.55756 95.9851 8.55903 1.7925 -22.3509 6.1165 4.72131 30.50605 -105.02052 16.11184 -1.92453 28.62621 -2.94575 -4.60251 -20.28474 -6.79251 -3.76058 -4.06534 33.09565 6.1865 6.46391 -24.35849 -6.62053 2.24158 3.33322
2e-05 -0.00027 0.00068 32.49268 -17.86885 -4.38742 44.22387 -1.30966 -7.32128 -14.17218 3.30805 -1.16641 -22.4057 -4.75713 -10.2423 26.74042 95.91083 8.52323 1.78807 -22.43561 6.17215 4.44561 30.88201 -104.98413 16.06524 -1.92727 28.64721 -3.01998 -5.05012 -20.29512 -6.77289 -3.73551 -4.05199 33.1627 6.19582 6.53706 -24.37295 -6.6279 2.22588 3.32485
-0.00045 -0.00037 0.00112 32.6021 -17.8841 -4.39077 44.19992 -1.27816 -7.34232 -14.13689 3.25751 -1.16754 -22.42316 -4.85417 -9.9778 26.92268 95.83605 8.48718 1.78357 -22.52045 6.22772 4.17016 31.2579 -104.94778 16.01869 -1.93 28.66827 -3.09406 -5.49732 -20.30545 -6.75325 -3.71042 -4.03862 33.22961 6.20522 6.61005 -24.38734 -6.63529 2.21023 3.3165
-0.00092 -0.00046 0.00156 32.71096 -17.89931 -4.39414 44.17592 -1.24659 -7.36349 -14.10131 3.20734 -1.16867 -22.43975 -4.95129 -9.71321 27.10429 95.76143 8.45101 1.77912 -22.60572 6.28337 3.89417 31.63472 -104.91151 15.97219 -1.93273 28.68933 -3.16818 -5.94548 -20.31573 -6.73349 -3.6852 -4.02519 33.29642 6.21473 6.68288 -24.40165 -6.6427 2.19465 3.30818
-0.0014 -0.00055 0.002 32.82381 -17.91467 -4.3975 44.15197 -1.21521 -7.38411 -14.06725 3.15504 -1.16981 -22.46085 -5.04844 -9.44832 27.28969 95.68833 8.41617 1.77479 -22.68921 6.33902 3.61904 32.00882 -104.87488 15.92542 -1.93548 28.71016 -3.24264 -6.39201 -20.32633 -6.71419 -3.66047 -4.01202 33.36396 6.22363 6.75662 -24.41644 -6.64999 2.17869 3.29969
-0.00185 -0.00064 0.00245 32.92809 -17.9298 -4.40083 44.12798 -1.18346 -7.40585 -14.03 3.10709 -1.17093 -22.47284 -5.14548 -9.18374 27.46761 95.61023 8.37799 1.76995 -22.7763 6.39455 3.34268 32.38813 -104.83883 15.87906 -1.93819 28.73168 -3.31626 -6.84088 -20.33628 -6.69398 -3.63479 -3.99833 33.43007 6.23384 6.82867 -24.43025 -6.65755 2.16345 3.29152
-0.00233 -0.00073 0.00288 33.04105 -17.94499 -4.40427 44.10399 -1.15207 -7.42647 -13.99599 3.05509 -1.17208 -22.49322 -5.24252 -8.91996 27.65178 95.54045 8.34415 1.76609 -22.85984 6.45029 3.06711 32.76237 -104.80258 15.83265 -1.94094 28.7521 -3.39082 -7.28841 -20.34681 -6.6746 -3.60997 -3.98511 33.49729 6.24267 6.90189 -24.44498 -6.66482 2.14765 3.28311
-0.00282 -0.00082 0.0033 33.1617 -17.96087 -4.40752 44.08013 -1.12106 -7.44607 -13.96478 2.99824 -1.17323 -22.52404 -5.34003 -8.65269 27.84638 95.4661 8.31065 1.76139 -22.93998 6.50593 2.79372 33.13164 -104.76473 15.78485 -1.94374 28.77305 -3.46593 -7.73132 -20.35812 -6.6563 -3.58626 -3.97249 33.56674 6.25048 6.97816 -24.46076 -6.67188 2.13075 3.27422
-0.00321 -0.0009 0.00382 33.22934 -17.97464 -4.41088 44.05588 -1.08768 -7.47262 -13.91397 2.96956 -1.17424 -22.49538 -5.43627 -8.39202 27.9894 95.37374 8.26025 1.75541 -23.04249 6.56108 2.51143 33.5332 -104.73199 15.74102 -1.94626 28.79659 -3.53605 -8.19188 -20.36519 -6.632 -3.55635 -3.95652 33.626 6.26618 7.04177 -24.47029 -6.68058 2.11895 3.26752
-0.00382 -0.00101 0.00412 33.41433 -17.99168 -4.41462 44.03226 -1.05943 -7.48381 -13.90672 2.88133 -1.17567 -22.59176 -5.53424 -8.12611 28.23573 95.34767 8.25506 1.75602 -23.09602 6.61794 2.24561 33.86423 -104.69114 15.69142 -1.94933 28.81104 -3.61787 -8.62083 -20.38103 -6.6202 -3.53939 -3.94756 33.70506 6.26396 7.12891 -24.49315 -6.68554 2.09716 3.25654
-0.00509 -0.0012 0.00396 33.87936 -18.02852 -4.41462 44.0117 -1.04391 -7.45742 -14.00069 2.62943 -1.17713 -23.03589 -5.64569 -7.77283 28.81393 95.2642 8.29324 1.74183 -23.02878 6.67418 2.04424 34.02106 -104.60532 15.60394 -1.9542 28.83137 -3.72199 -8.91317 -20.42273 -6.64475 -3.55955 -3.95866 33.85424 6.22302 7.30976 -24.55176 -6.68265 2.04111 3.23077
-0.00658 -0.00143 0.00357 34.46982 -18.06733 -4.41602 43.99135 -1.03366 -7.41432 -14.14079 2.31825 -1.1792 -23.60295 -5.75774 -7.42691 29.48687 95.2853 8.38936 1.73955 -22.91007 6.73325 1.85584 34.10446 -104.5152 15.51446 -1.95954 28.83785 -3.83927 -9.18096 -20.47293 -6.68169 -3.59255 -3.97673 34.02129 6.16255 7.51044 -24.62396 -6.67564 1.97606 3.20116
-0.00795 -0.00164 0.00321 35.03053 -18.09731 -4.41972 43.9703 -1.02203 -7.37647 -14.27305 2.03375 -1.18177 -24.11299 -5.86319 -7.12642 30.08488 95.42297 8.51473 1.75436 -22.80568 6.79428 1.64893 34.20754 -104.44241 15.44061 -1.9645 28.8293 -3.95752 -9.49521 -20.51809 -6.71139 -3.61847 -3.99098 34.16871 6.10369 7.68098 -24.69041 -6.66881 1.91993 3.17544
-0.0094 -0.00183 0.00314 35.4772 -18.15796 -4.41049 43.95259 -1.00663 -7.35032 -14.3542 1.74825 -1.18118 -24.63543 -5.9934 -6.62373 30.81772 94.89432 8.41548 1.67757 -22.73845 6.841 1.49533 34.36419 -104.30632 15.30572 -1.97027 28.90672 -4.04824 -9.66886 -20.56821 -6.7471 -3.64912 -4.00766 34.36102 6.07383 7.93418 -24.75487 -6.66871 1.84442 3.1411
-0.01076 -0.00207 0.00242 36.19021 -18.15873 -4.42921 43.92699 -0.99971 -7.29354 -14.54748 1.45325 -1.18716 -25.15205 -6.07465 -6.5393 31.29211 95.74542 8.78538 1.79013 -22.5829 6.91896 1.23373 34.397 -104.299 15.29608 -1.97435 28.80685 -4.19715 -10.1189 -20.61004 -6.77426 -3.67367 -4.02134 34.46876 5.98096 8.02814 -24.82697 -6.65411 1.80585 3.12322
-0.01175 -0.00238 -7e-05 37.61438 -17.96388 -4.51887 43.88763 -1.02001 -7.17519 -15.0827 1.12597 -1.21248 -25.69649 -5.99904 -7.64621 31.02978 100.65719 10.54101 2.45832 -22.18496 7.07582 0.67169 34.06067 -104.66592 15.64517 -1.97441 28.17802 -4.5233 -11.43144 -20.62658 -6.7655 -3.67198 -4.02154 34.29871 5.7011 7.60421 -24.91422 -6.59651 1.883 3.15681
-0.01267 -0.00273 -0.0032 39.30009 -17.71454 -4.6377 43.83856 -1.0477 -7.02249 -15.72024 0.79535 -1.24414 -26.21458 -5.87803 -9.16543 30.50403 106.89804 12.74584 3.30938 -21.70187 7.26517 0.00095 33.60993 -105.15927 16.11812 -1.97262 27.37975 -4.9041 -13.00694 -20.63454 -6.74923 -3.66473 -4.01905 34.05072 5.36144 7.03109 -25.00902 -6.52526 1.99566 3.2062
-0.01369 -0.00307 -0.00601 40.86304 -17.50934 -4.74706 43.78895 -1.0687 -6.87379 -16.28334 0.47935 -1.27202 -26.69921 -5.79207 -10.47239 30.09876 112.35454 14.67832 4.05411 -21.26523 7.44409 -0.62146 33.24216 -105.5832 16.52617 -1.97119 26.68646 -5.24656 -14.39914 -20.64657 -6.74268 -3.66432 -4.02017 33.86416 5.06127 6.57679 -25.10225 -6.46282 2.08433 3.24494
-0.01441 -0.00337 -0.00896 42.45076 -17.22126 -4.84055 43.76129 -1.10403 -6.7758 -16.96921 0.10465 -1.30371 -27.38975 -5.64577 -11.88969 29.69351 118.59345 16.90663 4.89988 -20.79457 7.60512 -1.24148 32.7442 -106.05755 16.97027 -1.9718 25.87249 -5.64545 -16.05418 -20.6581 -6.71067 -3.64677 -4.01176 33.56703 4.70997 5.91569 -25.18872 -6.38903 2.20516 3.29793
-0.01575 -0.00377 -0.01177 44.04248 -17.09427 -4.97392 43.6843 -1.11108 -6.56143 -17.41903 -0.14617 -1.32898 -27.63126 -5.61373 -13.16866 29.22448 123.49516 18.61735 5.57527 -20.37455 7.81069 -1.88924 32.48725 -106.45686 17.36898 -1.96769 25.27245 -5.9409 -17.23158 -20.66864 -6.72881 -3.66268 -4.02207 33.48321 4.44927 5.63973 -25.29012 -6.33592 2.2684 3.3254
-0.01881 -0.00443 -0.01409 45.62166 -17.41337 -5.2109 43.48452 -1.03945 -6.05842 -17.22607 -0.06787 -1.33465 -26.74133 -5.91213 -14.02162 28.64377 124.58001 18.85471 5.76541 -20.12125 8.13438 -2.61473 32.95802 -106.6185 17.60926 -1.9513 25.2827 -5.9261 -16.96363 -20.67744 -6.89549 -3.77867 -4.08822 33.99269 4.47016 6.5487 -25.43752 -6.34142 2.15699 3.27543
